<?xml version="1.0" encoding="UTF-8"?>
<svg viewBox="0 0 284.89496 266.94437" xmlns="http://www.w3.org/2000/svg">
 <defs>
  <linearGradient id="a" x2="0" y1="26.23" y2="8.0004" gradientUnits="userSpaceOnUse">
   <stop stop-color="#343d48" offset="0"/>
   <stop stop-color="#3e3e3e" offset="1"/>
  </linearGradient>
  <linearGradient id="b" x1="21.088" x2="25.175" y1="4.7385" y2="18.138" gradientTransform="matrix(1.0625,0,0,.93333,-1.5,-.17598)" gradientUnits="userSpaceOnUse">
   <stop stop-color="#fff" stop-opacity=".4307" offset="0"/>
   <stop stop-color="#fff" stop-opacity="0" offset="1"/>
  </linearGradient>
 </defs>
 <g transform="matrix(6.1366 0 0 6.1366 -3.9368 -12.273)">
  <path d="m5.06807,2.51086h37.86386a.55721,.49206 0 0,1 .55721.49206v26.49416a.55721,.49206 0 0,1 -.55721.49206h-37.86386a.55721,.49206 0 0,1 -.55721-.49206v-26.49416a.55721,.49206 0 0,1 .55721-.49206" fill="#e3e6e7" fill-rule="evenodd" stroke="#2e3136" stroke-linecap="square" stroke-linejoin="round"/>
  <path d="m4.8125,28.65625-3.3125,13.21875c-.22095.61329-.48954,1.18854-.27564,1.56018l.90064,1.56482h43.125l1.13902-1.43362c.31193-.39261.19403-1.06109-.01402-1.81638l-2.5-12.96875c-.06594-.3568-.35154-.54885-.75-.65625l-36.875.03125c-.72083-.04375-1.09962-.0267-1.4375.5z" fill="#c1c8ca" fill-rule="evenodd" stroke="#2e3136" stroke-linecap="square" stroke-linejoin="round"/>
  <path d="m6.75018,29.75185-.96513,6.26667c-.63714.92632.07629,1.39664.56567,1.48148h27.67879l.08839,1.06066h8.25894c.71354-.29814 1.46059-.69956 1.01821-1.54074l-1.29042-7.20881c-.05968-.16915-.31817-.26019-.67881-.31111l-33.37461.01482c-.6524-.02074-.99523-.01266-1.30104.23704z" fill="none" opacity=".85" stroke="#171b1c" stroke-linecap="square" stroke-linejoin="round" stroke-width=".5"/>
  <g transform="translate(-1.0607 -1.5581)" fill="#555753" fill-rule="evenodd" stroke="#222728" stroke-linecap="square" stroke-linejoin="round" stroke-width=".48863">
   <path d="m7.7452 33.123h2.9282v1.5114h-2.9282z"/>
   <path d="m10.989 33.123h2.1327v1.5114h-2.1327z"/>
   <path d="m13.475 33.123h2.1327v1.5114h-2.1327z"/>
   <path d="m15.906 33.123h2.1327v1.5114h-2.1327z"/>
   <path d="m18.513 33.123h2.1327v1.5114h-2.1327z"/>
   <path d="m20.988 33.123h2.1327v1.5114h-2.1327z"/>
   <path d="m23.463 33.123h2.1327v1.5114h-2.1327z"/>
   <path d="m26.07 33.123h2.1327v1.5114h-2.1327z"/>
   <path d="m28.59 33.123h2.1327v1.5114h-2.1327z"/>
   <path d="m31.064 33.123h2.1327v1.5114h-2.1327z"/>
   <path d="m33.495 33.123h2.1327v1.5114h-2.1327z"/>
   <path d="m36.014 33.123h2.1327v1.5114h-2.1327z"/>
   <path d="m38.489 33.123h2.1327v1.5114h-2.1327z"/>
   <path d="m40.964 33.123h1.9139v1.5114h-1.9139z"/>
  </g>
  <path d="m6.5962 33.123h4.0772v1.5114h-4.0772z" fill="#555753" fill-rule="evenodd" stroke="#222728" stroke-linecap="square" stroke-linejoin="round" stroke-width=".48863"/>
  <path d="m10.989 33.123h2.1327v1.5114h-2.1327z" fill="#555753" fill-rule="evenodd" stroke="#222728" stroke-linecap="square" stroke-linejoin="round" stroke-width=".48863"/>
  <path d="m13.475 33.123h2.1327v1.5114h-2.1327z" fill="#555753" fill-rule="evenodd" stroke="#222728" stroke-linecap="square" stroke-linejoin="round" stroke-width=".48863"/>
  <path d="m15.906 33.123h2.1327v1.5114h-2.1327z" fill="#555753" fill-rule="evenodd" stroke="#222728" stroke-linecap="square" stroke-linejoin="round" stroke-width=".48863"/>
  <path d="m18.513 33.123h2.1327v1.5114h-2.1327z" fill="#555753" fill-rule="evenodd" stroke="#222728" stroke-linecap="square" stroke-linejoin="round" stroke-width=".48863"/>
  <path d="m20.988 33.123h2.1327v1.5114h-2.1327z" fill="#555753" fill-rule="evenodd" stroke="#222728" stroke-linecap="square" stroke-linejoin="round" stroke-width=".48863"/>
  <path d="m23.463 33.123h2.1327v1.5114h-2.1327z" fill="#555753" fill-rule="evenodd" stroke="#222728" stroke-linecap="square" stroke-linejoin="round" stroke-width=".48863"/>
  <path d="m26.07 33.123h2.1327v1.5114h-2.1327z" fill="#555753" fill-rule="evenodd" stroke="#222728" stroke-linecap="square" stroke-linejoin="round" stroke-width=".48863"/>
  <path d="m28.59 33.123h2.1327v1.5114h-2.1327z" fill="#555753" fill-rule="evenodd" stroke="#222728" stroke-linecap="square" stroke-linejoin="round" stroke-width=".48863"/>
  <path d="m31.064 33.123h2.1327v1.5114h-2.1327z" fill="#555753" fill-rule="evenodd" stroke="#222728" stroke-linecap="square" stroke-linejoin="round" stroke-width=".48863"/>
  <path d="m33.495 33.123h2.1327v1.5114h-2.1327z" fill="#555753" fill-rule="evenodd" stroke="#222728" stroke-linecap="square" stroke-linejoin="round" stroke-width=".48863"/>
  <path d="m36.014 33.123h2.1327v1.5114h-2.1327z" fill="#555753" fill-rule="evenodd" stroke="#222728" stroke-linecap="square" stroke-linejoin="round" stroke-width=".48863"/>
  <path d="m38.312 33.123h3.7237v1.5114h-3.7237z" fill="#545755" fill-rule="evenodd" stroke="#222728" stroke-linecap="square" stroke-linejoin="round" stroke-width=".48863"/>
  <path d="m6.84528,4.79157h34.30944a.36106,.37227 0 0,1 .36106.37227v20.28703a.36106,.37227 0 0,1 -.36106.37227h-34.30944a.36106,.37227 0 0,1 -.36106-.37227v-20.28703a.36106,.37227 0 0,1 .36106-.37227" fill="url(#a)" fill-rule="evenodd" stroke="#242e3c" stroke-linecap="square" stroke-linejoin="round" stroke-width=".96843"/>
  <path d="m11.373 35.244h2.1327v1.5114h-2.1327z" fill="#555753" fill-rule="evenodd" stroke="#222728" stroke-linecap="square" stroke-linejoin="round" stroke-width=".48863"/>
  <path d="m13.994 35.244h2.1327v1.5114h-2.1327z" fill="#555753" fill-rule="evenodd" stroke="#222728" stroke-linecap="square" stroke-linejoin="round" stroke-width=".48863"/>
  <path d="m16.623 35.244h12.414v1.5114h-12.414z" fill="#555753" fill-rule="evenodd" stroke="#222728" stroke-linecap="square" stroke-linejoin="round" stroke-width=".48863"/>
  <path d="m29.588 35.244h2.1327v1.5114h-2.1327z" fill="#555753" fill-rule="evenodd" stroke="#222728" stroke-linecap="square" stroke-linejoin="round" stroke-width=".48863"/>
  <path d="m32.213 35.244h2.1327v1.5114h-2.1327z" fill="#555753" fill-rule="evenodd" stroke="#222728" stroke-linecap="square" stroke-linejoin="round" stroke-width=".48863"/>
  <path d="m34.98 36.432h2.1327v1.3239h-2.1327z" fill="#555753" fill-rule="evenodd" stroke="#222728" stroke-linecap="square" stroke-linejoin="round" stroke-width=".48863"/>
  <path d="m37.369 35.182h2.1327v1.1989h-2.1327z" fill="#555753" fill-rule="evenodd" stroke="#222728" stroke-linecap="square" stroke-linejoin="round" stroke-width=".48863"/>
  <path d="m37.623 36.554h2.1327v1.1676h-2.1327z" fill="#555753" fill-rule="evenodd" stroke="#222728" stroke-linecap="square" stroke-linejoin="round" stroke-width=".48863"/>
  <path d="m40.244 36.526h2.1327v1.2301h-2.1327z" fill="#555753" fill-rule="evenodd" stroke="#222728" stroke-linecap="square" stroke-linejoin="round" stroke-width=".48863"/>
  <path d="m8.7792 35.244h2.1327v1.5114h-2.1327z" fill="#555753" fill-rule="evenodd" stroke="#222728" stroke-linecap="square" stroke-linejoin="round" stroke-width=".48863"/>
  <path d="m6.1542 35.244h2.1327v1.5114h-2.1327z" fill="#555753" fill-rule="evenodd" stroke="#222728" stroke-linecap="square" stroke-linejoin="round" stroke-width=".48863"/>
  <g transform="translate(-1.4982 -2.9331)" fill="#555753" fill-rule="evenodd" stroke="#222728" stroke-linecap="square" stroke-linejoin="round" stroke-width=".48863">
   <path d="m8.4952 33.123h2.1782v1.5114h-2.1782z"/>
   <path d="m10.989 33.123h2.1327v1.5114h-2.1327z"/>
   <path d="m13.475 33.123h2.1327v1.5114h-2.1327z"/>
   <path d="m15.906 33.123h2.1327v1.5114h-2.1327z"/>
   <path d="m18.513 33.123h2.1327v1.5114h-2.1327z"/>
   <path d="m20.988 33.123h2.1327v1.5114h-2.1327z"/>
   <path d="m23.463 33.123h2.1327v1.5114h-2.1327z"/>
   <path d="m26.07 33.123h2.1327v1.5114h-2.1327z"/>
   <path d="m28.59 33.123h2.1327v1.5114h-2.1327z"/>
   <path d="m31.064 33.123h2.1327v1.5114h-2.1327z"/>
   <path d="m33.495 33.123h2.1327v1.5114h-2.1327z"/>
   <path d="m36.014 33.123h2.1327v1.5114h-2.1327z"/>
   <path d="m38.489 33.123h2.1327v1.5114h-2.1327z"/>
   <path d="m40.964 33.123h2.1327v1.5114h-2.1327z"/>
  </g>
  <path d="m18.14286,39.33959-.14286,1.66041h11l-.07143-1.53846c-.01526-.31154-.202-.45568-.42857-.46154h-10.07143c-.14332.0091-.23763.12428-.28571.33959z" fill="#555753" fill-rule="evenodd" opacity=".75"/>
  <path d="m18.14286,41.73077-.14286-.73077h11l-.07143.76923c-.02461.21907-.25855.20426-.42857.23077h-10.07143c-.11662.01608-.21662-.0501-.28571-.26923z" fill="#555753" fill-rule="evenodd" opacity=".75"/>
  <path d="m1.59099,43.05025c.0984.64389.00346,1.37064.88388,1.67938h42.42641c.49855-.47604.92699-.78294 1.19324-1.72357l-44.50353.04419z" fill="#2e3436" fill-rule="evenodd"/>
  <path d="m7 5.424 0.12546 13.883c7.1193-4.2239 26.595-6.4572 33.875-6.65v-7.35l-34 0.11667z" fill="url(#b)" fill-rule="evenodd" opacity=".2184"/>
  <path d="m1.666 43h44.396c0 0.61936-0.4885 1-0.9375 1h-42.271c-0.91801 0-1.1875-1-1.1875-1z" fill="#f5f5e5" fill-rule="evenodd" opacity=".12" stroke="#c7c8b0"/>
  <path d="m28.99706,43.00564 .00294,1.0744c0,.19137-.15407.34544-.34544.34544h-10.30912c-.19137,0-.34544-.15407-.34544-.34544v-1.08251l10.99706.0081z" fill-rule="evenodd" opacity=".6149"/>
  <path d="m23.84452,42.42549h4.99846a.15702,.34544 0 0,1 .15702.34544v.30912a.15702,.34544 0 0,1 -.15702.34544h-4.99846a.15702,.34544 0 0,1 -.15702-.34544v-.30912a.15702,.34544 0 0,1 .15702-.34544" fill="#808285" fill-rule="evenodd" opacity=".2731"/>
  <path d="m18.15702,42.42549h5.12346a.15702,.34544 0 0,1 .15702.34544v.30912a.15702,.34544 0 0,1 -.15702.34544h-5.12346a.15702,.34544 0 0,1 -.15702-.34544v-.30912a.15702,.34544 0 0,1 .15702-.34544" fill="#808285" fill-rule="evenodd" opacity=".2731"/>
  <path d="m18.50145,37.26455-.14789,1.29351h4.64645l-.03128-1.19851c-.00668-.2427-.08846-.35498-.18768-.35955h-4.15447c-.06276.0071-.10406.09681-.12512.26455z" fill="#888a85" fill-rule="evenodd" opacity=".27"/>
  <path d="m28.61543,37.26455 .15319,1.29351h-4.81281l.0324-1.19851c.0069-.2427.09163-.35498.1944-.35955h4.30323c.06501.0071.10779.09681.1296.26455z" fill="#888a85" fill-rule="evenodd" opacity=".27"/>
  <path d="m23.09452,37h.77971a.15702,.34544 0 0,1 .15702.34544v.80912a.15702,.34544 0 0,1 -.15702.34544h-.77971a.15702,.34544 0 0,1 -.15702-.34544v-.80912a.15702,.34544 0 0,1 .15702-.34544" fill="#808285" fill-rule="evenodd" opacity=".6192"/>
 </g>
</svg>
