<?xml version="1.0" encoding="UTF-8"?>
<svg viewBox="0 0 485.20361 493.05746" xmlns="http://www.w3.org/2000/svg" xmlns:xlink="http://www.w3.org/1999/xlink">
 <g transform="matrix(2.332 0 0 2.332 923.22 -418.61)">
  <path d="m-322.29 252.36h60.286a12 12 0 0 1 12 12v114.57a12 12 0 0 1 -12 12h-60.286a12 12 0 0 1 -12 -12v-114.57a12 12 0 0 1 12 -12"/>
  <path transform="matrix(.72059 0 0 .72059 -47.143 90.303)" d="m-291.43 172.36a48.571 48.571 0 1 1 -97.143 0 48.571 48.571 0 1 1 97.143 0z"/>
 </g>
 <path transform="matrix(1.7864 1.499 -1.499 1.7864 919.89 -112.12)" d="m-164.71 298.63h9.7143a8 8 0 0 1 8 8v98.286a8 8 0 0 1 -8 8h-9.7143a8 8 0 0 1 -8 -8v-98.286a8 8 0 0 1 8 -8"/>
 <path transform="matrix(-1.7864 1.499 1.499 1.7864 919.89 -112.12)" d="m280.25-74.733h9.7143a8 8 0 0 1 8 8v98.286a8 8 0 0 1 -8 8h-9.7143a8 8 0 0 1 -8 -8v-98.286a8 8 0 0 1 8 -8"/>
</svg>
