<?xml version='1.0' encoding='utf-8'?>
<svg xmlns="http://www.w3.org/2000/svg" version="1.1" x="0px" y="0px" viewBox="0 0 595.28 841.89" style="enable-background:new 0 0 595.28 841.89;"> <style type="text/css"> .st0{fill:#727272;} .st1{fill:#E42222;} .st2{fill:#4D4C4C;} .st3{fill:#1D1D1B;} </style> <g id="Schwert_Links"> <g id="Schwert1_x5F_Farbe"> <polygon class="st0" points="166.75,533.65 178.67,531.81 184.18,528.45 195.49,517.75 202.52,510.11 207.41,501.24 210.47,494.21 210.78,487.48 208.94,479.53 205.88,474.64 203.13,470.67 230.95,467.92 274.98,419 297.91,390.57 332.76,348.99 348.97,330.03 360.28,320.86 378.32,306.49 396.36,297.01 411.34,292.12 406.14,308.63 394.83,330.34 383.21,349.6 370.37,364.27 354.17,381.39 337.66,397.9 320.53,413.19 301.27,430.92 288.74,443.15 248.08,485.95 245.02,517.45 239.82,512.25 232.18,508.27 225.45,508.27 214.45,513.47 208.03,519.28 196.71,531.2 189.38,540.99 188.46,547.71 187.54,555.66 180.51,554.74 175.92,551.38 169.81,544.96 167.06,538.85 "/> <line class="st0" x1="239.52" y1="476.48" x2="365.48" y2="341.04"/> <ellipse class="st1" cx="227.43" cy="488.4" rx="5.48" ry="5.55"/> <path class="st2" d="M230.95,467.92l17.12,18.04c14.69-14.69,26.3-26.94,34.21-35.42c15.78-16.92,15.08-17.04,22.01-23.54 c11.64-10.93,19.11-15.78,34.85-31.34c2.26-2.23,4.34-4.37,8.41-8.56c8.67-8.92,20.81-21.56,35.65-37.5 c8.04-14.25,16.08-28.5,24.12-42.76l4.01-14.72c-57.27,61.45-114.55,122.9-171.82,184.36"/> </g> <g id="Schwert1_x5F_outline"> <g> <path class="st3" d="M164.74,532.34c4.29-0.98,8.84-1.89,13.28-2.52l-0.76,0.28l5.55-3.29l-0.33,0.25 c2.07-1.95,10.09-9.21,11.85-10.98c1.31-1.38,5.26-5.57,6.64-7.04c0,0-0.23,0.32-0.23,0.32l5.01-8.8l-0.06,0.13l3.15-6.99 l-0.12,0.5l0.97-6.7l0.02,0.2l-2.29-7.84l0.15,0.37c-0.87-1.62-2.86-5.45-3.83-6.96c-0.31-0.45-1.44-2.46-1.71-2.87 c0,0,0.72-0.18,0.72-0.18c4.55-1.15,9.16-1.88,13.8-2.49c4.69-0.54,9.29-1.37,14.02-0.26c8.31-10.33,19.98-23,29.42-34.09 c4.25-4.93,10.86-12.08,14.9-17.09c17.65-22.77,38.84-48.26,57.39-70.32c0,0,14.72-17.28,14.72-17.28l0.13-0.15l0.15-0.12 l7.34-5.9c7.38-5.95,14.9-11.72,22.43-17.48c6.11-3.06,12.24-6.08,18.41-9.04c5.36-1.62,10.79-3.07,16.21-4.53 c-1.35,5.94-3.17,11.76-4.96,17.58c-1.05,1.98-11.42,22.51-12.22,23.57c-2.57,4.35-7.85,13.2-10.51,17.7 c-7.28,8.66-16.37,18.89-24.19,27.06c-6.2,6.76-14.56,14.98-21.02,21.54c-13.03,11.79-27.09,24.39-39.75,36.55 c-17.48,16.39-32.52,35.41-50.91,50.87c0,0,0.13-0.3,0.13-0.3c0.88,2.73,1.01,5.4,0.9,8.03c-0.39,5.27-1.14,10.49-2.12,15.69 c-0.54,2.84-1.2,5.69-2.05,8.49c0,0-0.64-0.41-0.64-0.41l-6.31-4.09l0.51,0.37c-1.36-0.5-2.57-1.29-3.74-2.14 c-1.23-0.68-1.71-2.85-3.42-2.75c0,0,0.48,0.12,0.48,0.12l-6.73,0.95l0.85-0.19l-11.22,4.75l0.36-0.24 c-2.32,1.62-4.85,3.62-6.83,5.26c-1.43,1.48-3.04,2.8-4.27,4.44c-0.37,0.6-0.63,1.29-1.04,1.84c-1.66,1.93-4.2,4.75-5.33,6.02 c-2.33,3.26-4.82,6.67-7.27,9.83c0,0,0.31-0.77,0.31-0.77c-0.9,4.29-1.95,10.22-2.7,14.54c0,0-0.12,0.69-0.12,0.69l-0.75-0.01 l-7.14-0.11l-0.3,0l-0.44-0.29l-4.75-3.14l-0.06-0.04l-0.18-0.18l-6.42-6.13l-0.3-0.29c-0.05-0.26-2.46-6.72-2.53-6.99 C164.68,537.08,164.62,534.63,164.74,532.34L164.74,532.34z M168.09,535.05c0.33,1.29,0.47,2.4,0.41,3.74l-0.15-0.63l3.22,5.9 l-0.43-0.64l5.8,6.72l-0.25-0.22l4.42,3.58l-0.73-0.29l6.93,1.72l-0.87,0.68c0.2-4.41,0.62-10.49,0.97-14.81 c0,0,0.03-0.37,0.03-0.37c1.28-1.79,2.6-3.55,3.94-5.3c1.24-1.58,2.62-3.44,3.85-4.95c0,0.01,2.94-2.91,2.94-2.91 c1.5-1.45,2.84-3.06,4.72-4.01c1.57-1.32,2.82-2.99,4.21-4.5c2.11-2.07,4.16-4.2,6.09-6.45l0.28-0.15l10.79-5.65l0.47-0.24 l0.38,0.05l6.73,0.95l0.45,0.06l0.03,0.05c0.44,0.71,1.16,0.88,1.94,0.94c2.28-0.07,4.3,0.97,6.18,2.12c0,0,0.48,0.33,0.48,0.33 l0.03,0.04l4.09,6.31l-0.85,0.31c-0.48-5.31-0.35-10.6-0.06-15.9c0.39-5.48,0.47-10.88,3.25-15.89 c12.18-16.04,26.71-29.84,40.4-44.48c5.01-4.9,12.24-12.04,17.39-16.66c9.75-9.04,21.32-19.27,31.25-28.08 c6.46-6.48,14.89-14.53,21.15-21.18c0,0,8.29-8.65,8.29-8.65c4.88-4.94,11.82-13.23,15.9-17.64c3.25-5.41,9.02-14.53,12.19-20.03 c0,0,10.98-20.72,10.98-20.72c1.35-4.52,3.61-11.17,5.59-16.2c0,0,0.63,0.63,0.63,0.63c-4.9,1.91-9.83,3.75-14.76,5.56 c-2.12,1.33-5.91,3.33-8.69,4.94c-2.96,1.68-5.93,3.31-8.91,4.95c-3.48,3.05-9.75,8.04-14.25,11.76c0,0-14.57,11.89-14.57,11.89 c1.92-2.12-15.2,17.75-14.49,16.95c-10.59,12.59-26.04,30.81-36.61,43.3c-8.31,9.88-20.36,25.39-29.23,34.74 c-12.9,13.84-25.81,28.27-38.98,41.74c-4.42,2.01-9.09,2.1-13.8,2.49c-4.67,0.31-9.33,0.5-14.02,0.26c0,0,0.36-0.78,0.36-0.78 c0.98,1.28,2.38,2.91,3.31,4.18c0,0,3.13,4.32,3.13,4.32l0.12,0.16l0.04,0.21l1.37,8.06l0.01,0.07l0.01,0.14l0.36,6.76l0.01,0.2 l-0.13,0.3l-2.97,7.07l-0.02,0.05l-0.04,0.08l-4.78,8.93l-0.08,0.16l-0.15,0.16c-2.43,2.64-6.22,7.15-8.84,9.59 c0,0-9.35,9.08-9.35,9.08l-0.13,0.13l-0.2,0.12l-5.46,3.43l-0.33,0.21C175.43,534.46,171.9,534.8,168.09,535.05L168.09,535.05z"/> </g> <g> <path class="st3" d="M238.81,476.18c7.57-11.01,21.49-24.71,30.6-34.69c29.17-31.27,65.79-70.15,95.36-100.75 c0,0,0.73,0.68,0.73,0.68c-28.33,31.66-64.55,71.1-93.58,102.41c-5.42,5.77-18.18,19.93-23.75,25.27 c-2.76,2.7-5.6,5.32-8.63,7.76L238.81,476.18L238.81,476.18z"/> </g> <g> <path class="st3" d="M231.24,467.37c5.91,5.83,11.76,11.71,16.86,18.29c0,0-0.73,0.69-0.73,0.69c-3.19-2.69-6.1-5.64-8.98-8.62 c-2.87-2.99-5.69-6.03-8.41-9.16L231.24,467.37L231.24,467.37z"/> </g> <g> <path class="st3" d="M233.65,488.52c0.1,3.36-3.04,6.27-6.33,6.07c-5.16-0.1-7.81-6.58-4.16-10.23 C226.83,480.49,233.58,483.15,233.65,488.52L233.65,488.52z M231.7,488.52c-0.03-6.22-9.06-6.22-9.21,0 C222.72,494.64,231.52,494.64,231.7,488.52L231.7,488.52z"/> </g> </g> </g> <g id="Schwert_Rechts"> <g id="Schwert2_x5F_Farbe"> <polygon class="st0" points="409.92,533.23 398,531.39 392.5,528.03 381.18,517.33 374.15,509.69 369.26,500.82 366.2,493.79 365.9,487.06 367.73,479.11 370.79,474.22 373.54,470.25 345.72,467.5 301.69,418.58 278.76,390.15 243.91,348.57 227.71,329.61 216.39,320.44 198.36,306.07 180.32,296.59 165.34,291.7 170.54,308.21 181.85,329.92 193.46,349.18 206.31,363.85 222.51,380.97 239.02,397.48 256.14,412.77 275.4,430.5 287.94,442.73 328.6,485.54 331.66,517.03 336.85,511.83 344.5,507.85 351.22,507.85 362.23,513.05 368.65,518.86 379.96,530.78 387.3,540.57 388.22,547.29 389.13,555.24 396.17,554.32 400.75,550.96 406.87,544.54 409.62,538.43 "/> <ellipse class="st1" cx="348.59" cy="488.19" rx="5.39" ry="5.76"/> <path class="st2" d="M345.72,467.5l-17.12,18.04c-14.69-14.69-26.3-26.94-34.21-35.42c-15.78-16.92-15.08-17.04-22.01-23.54 c-11.64-10.93-19.11-15.78-34.85-31.34c-2.26-2.23-4.34-4.37-8.41-8.56c-8.67-8.92-20.81-21.56-35.65-37.5 c-8.04-14.25-16.08-28.5-24.12-42.76l-4.01-14.72c57.27,61.45,114.55,122.9,171.82,184.36"/> </g> <g id="Schwert2_x5F_outline"> <g> <path class="st3" d="M409.42,533.96c-4.28-0.33-8.22-0.44-12.01-0.69c0,0-0.3-0.18-0.3-0.18l-5.47-3.41 c-2.18-2.02-10.04-9.57-11.93-11.5c-1.28-1.42-5.2-5.75-6.56-7.25c0,0-0.1-0.12-0.1-0.12l-0.06-0.12l-4.81-8.91 c-0.01-0.02-0.04-0.07-0.05-0.09c0,0-3-7.06-3-7.06l-0.09-0.22l0.01-0.15l0.24-6.75l0.01-0.14c-0.62-0.49-0.36-0.78-0.35-1.13 c0.34-2.46,0.77-4.92,1.5-7.29c1.12-1.53,3.69-5.08,4.89-6.49c0,0,1.68-2.07,1.68-2.07l0.36,0.78 c-4.72,0.78-9.31-0.32-13.98-0.72c-4.7-0.56-9.39-1.22-14.05-2.07c-14.08-15.21-28.37-30.77-42.37-46.09 c-6.87-7.72-18.66-22.77-25.25-30.67c-10.53-12.47-26.01-30.83-36.58-43.34c-4.68-5.46-10.64-12.35-14.52-17.06 c-4.87-3.95-9.69-7.96-14.59-11.86l-14.67-11.77l0.22,0.15c-4.89-2.53-13.07-6.98-17.94-9.67c0,0,0.18,0.08,0.18,0.08l-7.41-2.7 c-1.23-0.45-2.46-0.94-3.69-1.4c-1.23-0.47-2.45-0.94-3.67-1.44l0.63-0.63c1.88,4.01,4.26,12.5,5.51,16.25 c1.02,1.9,11.69,22.38,12.41,23.28c2.39,3.94,8.53,13.93,10.57,17.36c4.87,5.44,11.05,12.72,15.99,17.87 c2.96,3.11,9.57,10.09,12.37,13.04c4.72,4.83,12.16,12.13,16.94,16.94c13.14,11.76,27.21,24.21,39.85,36.5 c9.92,9.4,23.75,24.66,33.21,34.74c0.09,0.08,16.3,17.69,16.38,17.75c0.63,2.65,1.04,5.33,1.48,8.01 c1.03,7.58,3.43,16.05,1.62,23.68c0,0-0.85-0.31-0.85-0.31l4.87-5.53l0.06-0.07l0.18-0.11l7.39-4.46l0.34-0.2l0.36,0.03 l6.73,0.61l0.2,0.02l0.18,0.07l11.44,4.27l0.23,0.08l0.25,0.23l6.32,5.92l0.07,0.07l0.02,0.03l11.1,12.12l0.08,0.08l0.04,0.05 l7.17,9.91l0.22,0.31c0.42,4.47,0.82,10.59,1.08,15.08c0,0-0.56-0.44-0.56-0.44l6.9-1.94l-0.71,0.28 c1.52-1.14,3.08-2.22,4.67-3.25c0,0-0.19,0.16-0.19,0.16c2-1.83,4.83-4.6,6.67-5.66c0,0,2.32-6.31,2.32-6.31l-0.08,0.34 C408.77,537.29,409.12,535.72,409.42,533.96L409.42,533.96z M410.2,533.33c0.1,1.76,0.25,3.74,0.28,5.75c0,0-0.09,0.16-0.09,0.16 l-3.19,5.92l-0.09,0.14c-1.63,2.52-3.54,4.79-5.48,7.06c-1.51,1.26-3.07,2.47-4.67,3.62c0,0-0.4,0.29-0.4,0.29l-0.31,0 l-7.17-0.11l-0.49-0.01l-0.07-0.43c-0.69-4.37-1.79-10.31-2.61-14.56c0,0,0.25,0.6,0.25,0.6l-7.51-9.65 c0.91,0.99-12.09-12.3-11.31-11.5c0,0-6.52-5.7-6.52-5.7l0.47,0.32l-10.57-6.12l0.39,0.09l-6.73,0.61l0.7-0.17l-7.9,3.49 l0.24-0.17l-5.53,4.87l-0.49,0.43c-2.69-5.13-2.74-10.78-3.08-16.37c-0.1-4.77-0.48-11.17-0.34-15.86c0,0,0.14,0.3,0.14,0.3 c-8.39-8.54-25.18-25.79-33.48-34.41c-16.38-17.26-34.74-33.41-52.41-49.31c-2.78-2.38-6.16-5.66-8.71-8.28 c-4.76-4.79-12.31-12.21-16.86-17.17c-2.4-2.61-9.98-10.44-12.34-13.16c-2.86-3.29-8.97-10.36-11.81-13.63 c-2.61-4.3-8.05-13.47-10.66-17.83c-1.78-2.75-10.58-20.5-12.22-23.46c0,0-0.04-0.07-0.04-0.07l-0.02-0.07l-2.56-8.27 c-0.92-3.02-1.98-6.01-2.39-9.17c4.6,1.18,11.31,3.02,15.95,4.42c5.2,2.55,13.07,6.6,18.32,9.36c0,0,0.11,0.06,0.11,0.06 l0.11,0.09l14.76,11.68c4.97,3.9,9.85,7.91,14.78,11.86c4.97,5.77,9.94,11.54,14.86,17.35c18.53,22.11,39.77,47.5,57.54,70.19 c14.26,16.75,31.36,35.07,44.59,50.95c4.67,0.09,9.32,0.36,13.98,0.72c4.66,0.51,9.37,0.34,13.85,2.03c0,0,0.66,0.27,0.66,0.27 l-0.3,0.51l-1.34,2.28c-0.94,1.49-2.93,5.36-3.78,6.98c0,0,0.16-0.39,0.16-0.39c-0.39,2.35-1.07,4.65-1.8,6.91 c-0.14,0.32-0.04,0.69-0.81,0.86l0.01-0.13l0.85,6.7l-0.09-0.37l3.12,7c-0.23-0.43,4.96,8.8,4.92,8.73c0,0-0.17-0.23-0.17-0.23 c1.03,1.11,5.52,5.89,6.62,7.07c2.14,2.15,9.63,8.96,11.82,11.04c0,0-0.24-0.18-0.24-0.18l5.53,3.31l-0.55-0.2 C402.38,531.33,406.42,532.43,410.2,533.33L410.2,533.33z"/> </g> <g> <path class="st3" d="M336.68,476.82c-41.27-41.77-86.04-92.17-125.96-135.44c0,0,0.73-0.68,0.73-0.68 c28.4,29.85,66.95,70.91,95.02,101.07c10.54,11.25,20.98,22.59,30.94,34.37L336.68,476.82L336.68,476.82z"/> </g> <g> <path class="st3" d="M345.97,468.26c-5.36,6.34-10.62,12.81-17.12,18.04c0,0-0.73-0.69-0.73-0.69c2.35-3.49,5.28-6.42,8.16-9.4 c2.89-2.97,5.86-5.86,8.96-8.64L345.97,468.26L345.97,468.26z"/> </g> <g> <path class="st3" d="M344.11,488.47c-0.03,6.27,9.22,6.22,9.22,0C353.03,482.62,344.46,482.56,344.11,488.47L344.11,488.47z M342.98,488.47c-0.24-5.37,6.6-8.38,10.39-4.47c2.41,2.34,2.36,6.57-0.13,8.81C349.46,496.43,343.09,493.62,342.98,488.47 L342.98,488.47z"/> </g> </g> </g> </svg>